<?xml version="1.0" encoding="UTF-8" standalone="no"?>
<!-- Created with Inkscape (http://www.inkscape.org/) -->

<svg
   xmlns:dc="http://purl.org/dc/elements/1.1/"
   xmlns:cc="http://creativecommons.org/ns#"
   xmlns:rdf="http://www.w3.org/1999/02/22-rdf-syntax-ns#"
   xmlns:svg="http://www.w3.org/2000/svg"
   xmlns="http://www.w3.org/2000/svg"
   xmlns:sodipodi="http://sodipodi.sourceforge.net/DTD/sodipodi-0.dtd"
   xmlns:inkscape="http://www.inkscape.org/namespaces/inkscape"
   width="512"
   height="512"
   viewBox="0 0 135.46666 135.46667"
   version="1.1"
   id="svg902"
   inkscape:version="0.92.2 2405546, 2018-03-11"
   sodipodi:docname="play-icon-nightly.svg">
  <defs
     id="defs896" />
  <sodipodi:namedview
     id="base"
     pagecolor="#ffffff"
     bordercolor="#666666"
     borderopacity="1.0"
     inkscape:pageopacity="0.0"
     inkscape:pageshadow="2"
     inkscape:zoom="0.25"
     inkscape:cx="-848.14397"
     inkscape:cy="266.57791"
     inkscape:document-units="mm"
     inkscape:current-layer="layer1"
     showgrid="false"
     units="px"
     inkscape:window-width="1916"
     inkscape:window-height="1044"
     inkscape:window-x="0"
     inkscape:window-y="34"
     inkscape:window-maximized="0" />
  <metadata
     id="metadata899">
    <rdf:RDF>
      <cc:Work
         rdf:about="">
        <dc:format>image/svg+xml</dc:format>
        <dc:type
           rdf:resource="http://purl.org/dc/dcmitype/StillImage" />
        <dc:title></dc:title>
      </cc:Work>
    </rdf:RDF>
  </metadata>
  <g
     inkscape:label="Layer 1"
     inkscape:groupmode="layer"
     id="layer1"
     transform="translate(0,-161.53332)">
    <rect
       style="fill:#00002a;fill-opacity:1;stroke:none;stroke-width:4.47655535;stroke-miterlimit:4;stroke-dasharray:none"
       id="rect1574"
       width="135.46666"
       height="135.46666"
       x="0"
       y="161.53333" />
    <path
       style="fill:#ffffff;stroke-width:0.0454734;fill-opacity:1"
       d="m 31.081769,270.12877 c -0.324898,-0.0731 -0.545738,-0.17076 -0.803339,-0.35507 -0.412127,-0.29487 -0.648864,-0.67574 -1.608123,-2.58722 l -0.910318,-1.81395 -3.102449,-4.6e-4 c -3.666204,-4.5e-4 -3.973248,-0.024 -5.072602,-0.38913 -2.439836,-0.81027 -4.18824,-2.84891 -4.701151,-5.48146 l -0.100917,-0.51796 -0.01499,-31.69496 c -0.01044,-22.08029 -3.47e-4,-31.87429 0.03328,-32.28612 0.217356,-2.66174 1.628833,-4.78324 3.934577,-5.9138 0.792925,-0.38879 1.524,-0.59768 2.455564,-0.70163 0.567151,-0.0633 92.516909,-0.0633 93.084059,0 2.20331,0.24587 4.04701,1.34629 5.21733,3.11398 0.68745,1.03835 1.06331,2.16049 1.17281,3.50145 0.0336,0.41183 0.0437,10.20583 0.0333,32.28612 l -0.015,31.69496 -0.10092,0.51796 c -0.62565,3.21115 -3.03816,5.45411 -6.26389,5.82363 -0.2395,0.0274 -1.68607,0.0468 -3.50987,0.0471 l -3.10244,4.5e-4 -0.91032,1.81395 c -0.97998,1.95275 -1.20275,2.30615 -1.64602,2.61114 -0.13338,0.0918 -0.36528,0.2131 -0.51534,0.26961 l -0.27284,0.10274 h -5.274919 -5.274915 l -0.273304,-0.10378 c -0.364779,-0.13852 -0.829576,-0.4938 -1.16512,-0.8906 -0.228367,-0.27006 -0.420161,-0.61545 -1.145916,-2.06361 L 90.35635,265.37279 H 67.733041 45.109734 l -0.833674,1.67115 c -0.458521,0.91913 -0.922959,1.81562 -1.032084,1.9922 -0.237167,0.38378 -0.600809,0.73977 -0.921797,0.90243 -0.512777,0.25985 -0.359092,0.25333 -5.897285,0.24992 -3.874382,-0.002 -5.152865,-0.0166 -5.343125,-0.0595 z m 83.102821,-9.66741 c 0.80103,-0.20488 1.34404,-0.73771 1.59873,-1.56879 0.0808,-0.26375 0.0836,-1.33086 0.0836,-32.03601 0,-30.70515 -0.003,-31.77226 -0.0836,-32.03601 -0.26187,-0.8545 -0.86152,-1.41518 -1.70469,-1.59388 -0.26045,-0.0552 -6.8339,-0.0643 -46.368035,-0.0644 -40.661569,-9e-5 -46.098286,0.008 -46.35212,0.0677 -0.908277,0.21412 -1.521765,0.85193 -1.714126,1.78207 -0.05977,0.28904 -0.06643,4.07682 -0.05621,31.99054 0.01122,30.64087 0.0143,31.67075 0.09551,31.91279 0.13759,0.41007 0.345067,0.75701 0.592503,0.99078 0.31262,0.29535 0.584212,0.44741 0.987902,0.55313 0.331818,0.0869 0.979381,0.0881 46.450633,0.0906 45.977003,0.002 46.115183,0.002 46.469903,-0.0885 z m -88.076062,-4.80134 c -0.607185,-0.14696 -1.166728,-0.58772 -1.433157,-1.12892 -0.302782,-0.61504 -0.279892,1.76918 -0.267089,-27.82069 l 0.01163,-26.88779 0.105853,-0.29557 c 0.251984,-0.70363 0.693733,-1.15246 1.398403,-1.42084 l 0.269207,-0.10252 34.188137,-0.0115 c 30.149599,-0.0102 34.222642,-0.004 34.480213,0.0562 0.858456,0.19909 1.476739,0.8147 1.67875,1.67151 0.05878,0.24931 0.06712,3.62113 0.06712,27.13672 0,23.51559 -0.0083,26.88742 -0.06712,27.13672 -0.198827,0.8433 -0.795038,1.44952 -1.642749,1.67032 -0.233542,0.0608 -4.114702,0.0681 -34.392854,0.0648 -29.316192,-0.003 -34.167223,-0.0129 -34.396347,-0.0684 z m 58.449963,-8.14003 c 0,-3.21651 -0.0047,-3.41515 -0.09124,-3.8397 -0.167587,-0.82236 -0.525204,-1.6845 -0.979774,-2.36203 -0.120464,-0.17955 -0.423062,-0.54486 -0.672438,-0.8118 -0.903961,-0.96765 -1.440907,-1.73358 -1.966043,-2.80449 -0.526118,-1.07293 -0.847983,-2.12854 -0.99554,-3.26505 -0.104575,-0.80546 -0.104575,-14.35527 0,-15.16072 0.147616,-1.13695 0.4696,-2.19274 0.995754,-3.26505 0.517974,-1.05563 1.057575,-1.82144 2.000712,-2.83942 0.692478,-0.74742 1.11845,-1.4621 1.410771,-2.36693 0.285796,-0.88462 0.288047,-0.91742 0.318009,-4.62727 l 0.02727,-3.3764 H 56.911667 29.217359 v 24.05543 24.05543 h 27.670566 27.670566 z m 7.230271,-20.66343 v -24.05543 h -1.182308 -1.182309 l -6.36e-4,2.98988 c -4.55e-4,1.64443 -0.02032,3.32751 -0.04437,3.74018 -0.114752,1.96904 -0.662516,3.64163 -1.722137,5.25857 -0.395769,0.60392 -0.626555,0.89223 -1.328724,1.6599 -0.893247,0.97656 -1.330315,1.77793 -1.620949,2.972 -0.07092,0.2914 -0.07865,0.90428 -0.09141,7.24992 -0.01531,7.61741 -0.0267,7.26277 0.261494,8.14468 0.301935,0.92396 0.710045,1.62921 1.357063,2.34515 0.691951,0.76567 0.914652,1.03196 1.202658,1.43808 1.008436,1.422 1.614633,2.95631 1.882194,4.76391 0.05753,0.38866 0.07467,1.13517 0.09214,4.01303 l 0.02147,3.53556 h 1.177916 1.177916 v -24.05543 z m 8.941618,28.80346 c -0.769065,-0.18615 -1.349287,-0.76078 -1.605021,-1.58957 -0.0785,-0.25439 -0.08359,-0.51888 -0.08359,-4.34077 0,-3.82162 0.0051,-4.08651 0.08361,-4.34271 0.190848,-0.62276 0.607479,-1.14924 1.111651,-1.40471 0.51436,-0.26065 0.3502,-0.25372 6.01227,-0.25372 5.7156,0 5.51463,-0.009 6.0454,0.27379 0.47432,0.25281 0.8592,0.71564 1.05691,1.27096 l 0.10523,0.29557 v 4.16082 4.16082 l -0.10523,0.29557 c -0.27154,0.7627 -0.85489,1.29944 -1.60426,1.47608 -0.42252,0.0996 -10.60483,0.0976 -11.01697,-0.002 z m 7.92902,-5.93034 v -1.18231 h -2.4101 -2.41009 v 1.18231 1.18231 h 2.41009 2.4101 z m -7.59406,-15.67424 c -0.74188,-0.12405 -1.446371,-0.64381 -1.775699,-1.31008 -0.943723,-1.90926 0.895359,-4.02046 2.912529,-3.34347 0.69731,0.23403 1.26926,0.80219 1.51183,1.5018 0.14623,0.42178 0.14122,1.17591 -0.0104,1.56883 -0.42207,1.09363 -1.54284,1.76608 -2.63824,1.58292 z m 9.52979,-0.0216 c -0.87464,-0.16702 -1.65702,-0.93057 -1.86727,-1.82231 -0.40095,-1.70056 1.17585,-3.27735 2.87641,-2.87641 0.95027,0.22405 1.68688,1.02472 1.8382,1.99806 0.24987,1.60721 -1.22884,3.00974 -2.84734,2.70066 z m -9.72162,-9.65512 c -1.243105,-0.31505 -2.048434,-1.57287 -1.790841,-2.79707 0.102274,-0.48604 0.314317,-0.87815 0.663939,-1.22778 0.980642,-0.98063 2.545132,-0.93903 3.471512,0.0923 1.14139,1.27071 0.61981,3.29448 -0.99688,3.86803 -0.34992,0.12413 -0.99133,0.15484 -1.34773,0.0645 z m 9.76398,0.0368 c -0.88998,-0.19918 -1.56939,-0.79133 -1.84285,-1.60613 -0.29503,-0.87908 -0.0772,-1.78552 0.59112,-2.45917 0.35358,-0.35643 0.73131,-0.55665 1.25173,-0.66349 0.86689,-0.17797 1.78962,0.1857 2.34836,0.92554 0.71022,0.94042 0.62783,2.23028 -0.19736,3.08963 -0.32007,0.33332 -0.83977,0.62197 -1.25911,0.69934 -0.24466,0.0451 -0.72003,0.0527 -0.89189,0.0143 z m -9.87646,-9.69649 c -1.117192,-0.31963 -1.887821,-1.52075 -1.701102,-2.65138 0.197159,-1.19385 1.178112,-2.04355 2.359082,-2.04343 0.6811,9e-5 1.22293,0.22049 1.69425,0.68924 0.46818,0.46562 0.72365,1.06148 0.72528,1.69165 0.003,1.08042 -0.75161,2.05893 -1.79742,2.33133 -0.35083,0.0914 -0.92724,0.0835 -1.28009,-0.0174 z m 9.67693,0.0152 c -0.53527,-0.14396 -1.05338,-0.51257 -1.3513,-0.96141 -0.65243,-0.98293 -0.53227,-2.2326 0.29369,-3.05427 0.47197,-0.46953 0.99754,-0.68664 1.67532,-0.69206 0.65765,-0.005 1.24781,0.23843 1.71906,0.70983 0.33334,0.33344 0.5439,0.73543 0.64737,1.23592 0.24912,1.20499 -0.53781,2.45094 -1.74689,2.76586 -0.32564,0.0848 -0.91429,0.083 -1.23725,-0.004 z m -9.35686,-9.57163 c -1.304943,-0.22456 -2.194781,-1.3997 -2.024592,-2.67374 0.160667,-1.20272 1.171302,-2.0954 2.374432,-2.09729 1.33118,-0.002 2.41104,1.07454 2.4076,2.40042 -0.002,0.78178 -0.41982,1.55503 -1.07527,1.99009 -0.47967,0.31839 -1.15522,0.4712 -1.68217,0.38052 z m 9.62177,0.002 c -0.76826,-0.11774 -1.44773,-0.62559 -1.79302,-1.34016 -0.77187,-1.59737 0.38812,-3.43557 2.1662,-3.4327 1.19449,0.002 2.19618,0.88284 2.36861,2.08301 0.16613,1.15633 -0.58707,2.29501 -1.73582,2.62419 -0.29255,0.0838 -0.70972,0.11106 -1.00597,0.0657 z"
       id="path1595"
       inkscape:connector-curvature="0" />
  </g>
</svg>
